<svg id="Layer_1" data-name="Layer 1" xmlns="http://www.w3.org/2000/svg" viewBox="0 0 1032.22 1035.77"><defs><style>.cls-1{fill:#f27574;}.cls-2,.cls-3{fill:#fff;}.cls-3{font-size:229.26px;font-family:GillSansMT-Condensed, Gill Sans MT Condensed;}</style></defs><title>Boton sin mano</title><circle class="cls-1" cx="516.11" cy="516.11" r="516.11"/><path class="cls-2" d="M476.86,491.79c-2.84,18-.44,35.39,3.79,52.93,2,8.13,4.59,15.73,9.68,22.48,4.65,6.19,10.93,11.1,17.48,15.14,25.86,15.95,64.84,25.51,88.76.75,6.9-7.14,10.77-16.44,14.93-25.29l14-29.84c2.52-5.36-5.46-10.07-8-4.67-7,14.81-13.22,30.38-21.32,44.62-7.16,12.59-19.74,19.83-34.09,21-15.16,1.21-30.08-4-43.31-11-13.63-7.19-23.16-16.35-29.85-30.32-8.1-16.9-11.2-37-10.54-55.58,0-.89-1.44-1.12-1.58-.21Z" transform="translate(-24.67 -56.89)"/><path class="cls-2" d="M466.41,488.27c4.85-11.61,21.31-25.25,33.87-16.24,12.28,8.8,22.69,19.76,35.76,27.5s27.57,13.21,42.21,17.38a227.7,227.7,0,0,0,22.46,5.18c7.36,1.32,15.42,5.22,23,3.49,3.16-.72,3.16-4.8.84-6.41-6.66-4.63-17-4.12-24.68-6.28-8.44-2.38-17-4.17-25.39-6.8-16.39-5.15-32.47-12.24-46-23-6.21-4.92-11.67-11.24-18.55-15.26-5.75-3.37-14.06-3.82-20.56-2.86-12,1.76-23.37,10.34-24.18,23.12-.05.8,1,.8,1.29.17Z" transform="translate(-24.67 -56.89)"/><path class="cls-2" d="M470.38,494.27c-11.56-12.51-.72-29.53,11.44-36.31,15.17-8.46,32-8.76,48.7-6.05s32.53,9.45,48.24,15.57c8.14,3.17,16.31,6.26,24.41,9.52,7.36,3,13.84,6.77,18.27,13.54s6.75,14.55,8.88,22.24c1.22,4.37,3.22,9.62,2,14.16-1.06,3.82-4.56,4.78-7.69,6.49a2.9,2.9,0,0,0-.58,4.51c6,6.08,14.41-1,16.73-7.27,3.22-8.74-1-19.34-3.68-27.73-2.65-8.19-6.14-16.27-12-22.74-6.79-7.56-16.37-10.92-25.58-14.51-20.79-8.1-41.79-18-63.81-22.23-19.09-3.63-41.3.16-57.71,10.94-13.58,8.93-23.42,28.49-9.68,41.93a1.46,1.46,0,0,0,2.07-2.07Z" transform="translate(-24.67 -56.89)"/><path class="cls-2" d="M526.24,443.48c6.31-13.3,20.16-17.47,32.94-22.3,15.15-5.72,30.54-10.95,45.14-18a403.34,403.34,0,0,0,43.8-24.29c10.57-6.84,22.76-19.58,14.62-33-7.69-12.64-29.32-9.38-40.81-5.26a2.36,2.36,0,0,0,1.26,4.56c8.74-1.48,18.18-3.35,26.44.92,8,4.12,7.72,12.28,2,18.43-6.26,6.68-15.79,11.15-23.63,15.69q-12.26,7.11-25,13.43c-8.41,4.18-16.84,8.6-25.42,12.39-7.84,3.47-16,6.22-23.81,9.68-12.09,5.33-24.34,14.22-28.42,27.34-.16.52.65.88.89.38Z" transform="translate(-24.67 -56.89)"/><path class="cls-2" d="M506.19,321.41c-5.09-3.11-12.73-2.37-18.31-1.2a36.9,36.9,0,0,0-17.68,9.08c-9.43,8.92-12.59,24.48-4.89,35.5,9,12.83,25.19,13.51,39.2,15.76,7.64,1.22,14.74,3.48,20.89,8.33,2.75,2.17,4.82,4.91,7.4,7.24s5.68,4.06,8.13,6.81a.64.64,0,0,0,1.09-.45c-.46-5.12-.85-10.33-4.21-14.45a45.34,45.34,0,0,0-13.34-10.82c-12.32-6.68-26.34-5.25-39.33-9.51-5.81-1.91-11.59-5.4-13.85-11.37-2.06-5.43-1-11.89,1.65-16.94,3.08-5.89,8.35-9.86,14.51-12.15,6-2.23,12.64-1.79,18.52-4a1,1,0,0,0,.24-1.85Z" transform="translate(-24.67 -56.89)"/><path class="cls-2" d="M643.75,378.35c-2.94,3.52-5.36,6.12-7.12,10.51q-2.4,6-4.51,12.13c-3.09,9-5.75,18.21-8,27.49-2.11,8.67-2,17.74-2.91,26.58-.47,4.58-1.2,9.14-1.72,13.72-.47,4.12-1.92,9.29-.33,13.2a1.24,1.24,0,0,0,2.23.29c2-3.36,1.62-7.81,2-11.65.53-4.7,1.05-9.43,2-14.06,1.79-8.75,5.5-17,7.61-25.61s4.6-17.26,7.44-25.73c1.37-4.09,2.78-8.16,4.28-12.2,1.73-4.68,2-8.39,2.49-13.21.19-1.74-2.41-2.78-3.52-1.46Z" transform="translate(-24.67 -56.89)"/><path class="cls-2" d="M479.17,374c-1,5.34,2.19,9.85,4,14.73a119.8,119.8,0,0,1,4.89,18.9c.62,3.3,1.61,6.4,1.89,9.77.26,3.11.26,6.23.42,9.35.29,5.66-1.79,12.41-.19,17.8a.68.68,0,0,0,1.13.3c4-4.23,4.53-12.52,5.39-18.08a80.19,80.19,0,0,0,.39-20.75,86.48,86.48,0,0,0-5.66-21.32c-1.89-4.75-3.92-11.75-9.81-12.53a2.49,2.49,0,0,0-2.41,1.84Z" transform="translate(-24.67 -56.89)"/><path class="cls-2" d="M648,390.42c6.79-4.31,14.73,2.22,15,9.37.25,7.65-4.64,14.44-8.15,20.86a133.8,133.8,0,0,0-9,21.44c-2.27,6.74-5.07,14.67-4.92,21.85a.72.72,0,0,0,1.33.36c3.13-4.41,5-9.81,7.44-14.61s5-9.86,7.65-14.73c4.78-8.82,11.36-17.52,13.94-27.35,2.16-8.26.84-17.77-6.36-23.15-6.57-4.91-14.77-2.71-18,4.78-.31.72.38,1.69,1.18,1.18Z" transform="translate(-24.67 -56.89)"/><path class="cls-2" d="M664,379.63c10.37-1.05,17.7,9.11,19.64,18.2,2.26,10.58-1.37,22.89-6.19,32.31s-13,16.27-19.07,24.78c-6.41,9-9.32,18.15-11.65,28.86-.51,2.34,3.05,4.2,4.11,1.73,2.59-6,6.32-11.06,9.66-16.65a107.44,107.44,0,0,1,10.91-15.67c4.31-5,8.95-9.65,12.35-15.32a73,73,0,0,0,7.19-17.18c3.1-10.7,4.63-24.43-2.11-34.16a22.56,22.56,0,0,0-25.06-8.45c-.8.26-.72,1.64.21,1.55Z" transform="translate(-24.67 -56.89)"/><path class="cls-2" d="M450.38,350.17c-15.1,1.78-9.35,24.61-5.88,33.59,2.74,7.07,6.84,13.42,10.08,20.25,1.62,3.42,2.66,7.09,4.32,10.49s3.8,6.83,5.59,10.27a1.14,1.14,0,0,0,2.06-.27c.86-5.53,1.26-11.4-.5-16.78-1.87-5.7-4.78-11.06-7.63-16.31-5-9.19-13.83-26.45-5.84-35.95,1.51-1.8.74-5.65-2.2-5.3Z" transform="translate(-24.67 -56.89)"/><path class="cls-2" d="M422.82,352.88c-8.53,1.16-13.7,9.59-15.73,17.38-2.54,9.78-.62,19.87,3.49,28.91C415.51,410,423.46,419,430.5,428.47a103.58,103.58,0,0,1,9.6,15.08c2.7,5.38,6.55,11.41,8.31,17.14.29,1,1.9,1.12,2.1,0,.9-5.07,1.86-9.29.52-14.48-1.28-5-4-9.66-6.73-14-5.88-9.38-13.36-17.61-19.5-26.81-5.48-8.21-10-17.39-9.92-27.47.12-9.23,4-16.15,9.21-23.44.65-.9-.42-1.77-1.27-1.65Z" transform="translate(-24.67 -56.89)"/><path class="cls-2" d="M511.94,376c-.31-3.44-.83-6.27,1-9.4a20.18,20.18,0,0,1,7.82-7.47c7.16-3.74,15.82-3.88,23.63-5.26,17-3,33.26-9.38,49.13-15.89,12-4.94,25.25-12.94,24.26-27.85-1-14.41-13.16-24.15-26.44-27.19-9.17-2.1-17.37-1.52-26.4.75-8,2-18.71,3.56-25.12,9.07-1.5,1.29.16,3.27,1.75,3,3.77-.62,7.29-2.52,10.93-3.67a45.48,45.48,0,0,1,12.39-2.19c3.92-.14,7.66.56,11.55.74a71.22,71.22,0,0,1,11.66,1.06c6.71,1.42,13.41,4.38,17.34,10.27,3.58,5.37,4.41,12.27.29,17.59-3.87,5-10.3,7.7-16,10-7.61,3.07-15.26,6.07-23,8.72a168.7,168.7,0,0,1-23,6.29c-7.07,1.35-14.41,1.69-21.29,4-6.7,2.2-13,6.08-16.09,12.63-2.54,5.32-3.29,12.15.52,16.93,1.56,2,5.28.37,5.06-2.09Z" transform="translate(-24.67 -56.89)"/><path class="cls-2" d="M533.14,329.12c-3.47-5-9-8.33-9.65-15-.52-5.05,2.07-10.61,4.83-14.69a30.75,30.75,0,0,1,11.22-10c3.52-1.83,8.32-3.36,10.37-7.08a.89.89,0,0,0-.13-1c-4-4.68-11.8-1.7-16.13.8a40.36,40.36,0,0,0-14.43,14.39c-3.51,6-6,13.61-4.56,20.57S521.58,333,529,334.47c2.84.57,6.06-2.53,4.11-5.35Z" transform="translate(-24.67 -56.89)"/><path class="cls-2" d="M540.78,315.81c8,.66,15.49-1.9,22.2-6.09,1.67-1,3.27-2.51,5-3.42,3.06-1.6,5.33-.38,8.14.93,1.78.83,4.32,1.58,5.79,2.94q-.85-2.44-.57.11a10.25,10.25,0,0,1-.48,2.67c-2.77,9-12.39,2-16.77,8.36-4.07,5.87,6.06,6.51,9.44,6.38,7.42-.27,13.32-3.8,15.88-11,2.15-6.07,1.7-12-4.27-15.2-6.83-3.71-13.94-4.31-20.23.84-3.58,2.92-6.71,6-11,7.91a53.29,53.29,0,0,1-13.4,3.86c-1,.18-.69,1.65.23,1.73Z" transform="translate(-24.67 -56.89)"/><path class="cls-2" d="M503.55,601.63c-1.41,3,.15,6,1.3,8.88a85.93,85.93,0,0,1,4.37,13.39c2.25,10.11,2.06,20.6,2.55,30.89,1,20.31-2.33,39.8-4.06,59.95a582.43,582.43,0,0,0-1.62,61.94c.22,10.51.62,21,1.09,31.53q.36,7.88.76,15.75c.2,3.93-.17,8.08,3.71,10.17a2.66,2.66,0,0,0,2.69,0c5.56-3.81,2.7-14.2,2.42-20-.39-8.21-.75-16.42-1-24.63-.55-16.73-.76-33.48-.18-50.21.57-16.51,2.23-32.84,4.26-49.22s1.31-32.4,0-48.83c-.64-8.29-1.28-16.81-4-24.73-1.62-4.75-5.33-15.57-11.79-15.17a.62.62,0,0,0-.53.31Z" transform="translate(-24.67 -56.89)"/><path class="cls-2" d="M570.24,615.66c-6.46.42-11.14,7.42-14.34,12.32a102.78,102.78,0,0,0-9.7,19.33c-5.45,14.16-8.06,29.3-9.28,44.37-2.48,30.81,1.71,61.57,7.67,91.75q2.63,13.28,5.79,26.45c1.86,7.79,3.07,16.89,6.85,24,1.9,3.57,7.93,2,7.72-2.09-.33-6.64-2.94-13.36-4.53-19.79q-2.7-11-5-22c-3.19-15.07-6-30.26-7.8-45.55-3.42-28.4-3.68-58.32,4.62-85.94a105.6,105.6,0,0,1,9.27-22c3.26-5.72,10.19-12.44,10.29-19.31a1.53,1.53,0,0,0-1.52-1.52Z" transform="translate(-24.67 -56.89)"/><path class="cls-2" d="M479.44,580.14c.74-5.8-7.4-7.49-11.61-7.16-7.1.57-13.3,4.09-18.91,8.22-6.49,4.78-12.31,10.51-19.11,14.87-6.64,4.26-15.37,9.37-23.43,7.55l-1.2,4.35c7.39,1.54,11,9.78,16.92,13.85a41.25,41.25,0,0,0,21.12,6.68c15.6.79,33.05-6.07,45-15.92,4-3.31-1.15-9.68-5.48-7.1-6.84,4.07-13.36,9.61-20.78,12.51a47.93,47.93,0,0,1-21,3.51,35,35,0,0,1-20-8c-4.57-3.8-8.63-8.24-14.53-9.92-2.8-.79-4,3.53-1.2,4.35,7.33,2.16,15.14,2.69,22.37-.25,7-2.86,13-8,18.84-12.75s12.23-10.63,19.85-12.54c2.14-.54,12.79.93,13.2-2.29Z" transform="translate(-24.67 -56.89)"/><path class="cls-2" d="M609.85,585.87c-2.88,11.9,17,12.38,24.42,12.67A86.86,86.86,0,0,0,654.53,597c6.92-1.37,12.83-5.09,19.11-8.1L670,586c-1.17,4.57-4.87,7.89-7.72,11.48-2.31,2.9-4.2,6.11-6.35,9.13-4.51,6.34-9.57,13.75-17,16.92-8.82,3.78-13.78-2.33-20.63-6.76a53.65,53.65,0,0,0-10.13-5,16.42,16.42,0,0,0-6-1.44c-1.44,0-4.2,1.61-5.47,1.07-4-1.72-4.4,4.72-1.16,4.3,1.92-.25,3.58,2.21,5.19,3.06,2.23,1.18,4.76,1.71,7.05,2.76,4.4,2,8.13,4.85,12,7.73,7.33,5.48,15.73,6.14,24,2.23,8.49-4,13.7-11.4,17.51-19.71A103.15,103.15,0,0,1,668,598.71c2.48-3.84,5.29-6.93,6.82-11.34a2.52,2.52,0,0,0-3.08-3.08c-5.1,1.94-10.48,2.48-15.84,3.23a138.28,138.28,0,0,1-15.51,1.78,89,89,0,0,1-15-.78c-2.23-.32-11.31-.76-12.67-3a1.57,1.57,0,0,0-2.84.37Z" transform="translate(-24.67 -56.89)"/><path class="cls-2" d="M824.08,305.6c-8,39.77-13.43,79.93-22.14,119.58-8.53,38.8-19,77.39-32.48,114.79-25,69.5-60.49,134.85-111.36,188.86-31.11,33-65.3,63.23-98.39,94.23-4.36,4.08,2.2,10.62,6.55,6.55,29.93-28,60.56-55.51,89.3-84.78a494.51,494.51,0,0,0,69.76-89.08c39.86-65.41,65-138.88,80.63-213.59,4.72-22.56,8.66-45.25,12.38-68s7.15-45.31,8.85-68.16c.13-1.76-2.74-2.16-3.09-.42Z" transform="translate(-24.67 -56.89)"/><path class="cls-2" d="M826.58,295.08c-47.95,2.94-96.83-10.65-141.22-27.57-45.94-17.52-90.89-42.64-125.87-77.67a154.82,154.82,0,0,1-27.63-36.72,131,131,0,0,1-9.75-23.9c-2.28-7.65-2.4-17.07-6.91-23.66a2.21,2.21,0,0,0-4,.52c-2.48,6.93.32,15,2.2,21.84a144.51,144.51,0,0,0,7.53,20.92,149.14,149.14,0,0,0,22.8,35.54c17.76,20.87,40.33,37.47,63.06,52.54,20.19,13.38,42.23,23.93,64.62,33A450.1,450.1,0,0,0,749,293.81c25.29,5.27,52.25,8.84,77.94,4.3,1.7-.3,1.32-3.13-.41-3Z" transform="translate(-24.67 -56.89)"/><path class="cls-2" d="M249,307.48c3.07,40.54,10.29,81.27,18.26,121.1,7.93,39.63,17.91,78.74,31.38,116.88,24.65,69.79,61.25,135.69,112,189.85,31.46,33.55,66.2,64.11,99.77,95.5,4.35,4.07,10.92-2.47,6.55-6.55-29.51-27.58-59.66-54.63-88.07-83.35a486.16,486.16,0,0,1-69.72-88.47c-39.57-64.79-63.87-137.37-81.45-210.87q-7.92-33.08-13.85-66.6c-4-22.62-7.26-45.39-11.82-67.9-.35-1.72-3.23-1.36-3.09.42Z" transform="translate(-24.67 -56.89)"/><path class="cls-2" d="M251.1,298.4c23.13,4,47.25,1.6,70.19-2.5a452.1,452.1,0,0,0,78.64-21.8c23.88-8.92,47.37-19.43,69.27-32.55C492,227.91,514.51,212,533.36,193.23a159,159,0,0,0,28.85-38.37,139.71,139.71,0,0,0,9.72-23.56c2.38-7.7,6-17.39,3.33-25.27a2.21,2.21,0,0,0-4-.52c-4.1,6.07-4.29,14.1-6.29,21.1a128.65,128.65,0,0,1-8.51,22,145.9,145.9,0,0,1-23.72,33.89C514.7,202,492.54,217.86,470.14,232c-42.4,26.69-91.59,44.85-140.37,55.67-25.63,5.69-52,9.26-78.26,7.74-1.7-.1-2.13,2.73-.41,3Z" transform="translate(-24.67 -56.89)"/><path class="cls-2" d="M409.73,262.73a10.87,10.87,0,0,0,1.38,2.76c.13.15.35,0,.31-.18a10.87,10.87,0,0,0-1.4-2.75c-.11-.19-.38,0-.29.17Z" transform="translate(-24.67 -56.89)"/><path class="cls-2" d="M590.61,797.54a47.88,47.88,0,0,0,.76-7.75c.14-2.87.54-5.68.67-8.55l-5.94.8c1.69,4,3.87,8.2,7.16,11.15l3.3-5.67a4.08,4.08,0,0,0-3.69.6,4.92,4.92,0,0,0-1.19,1.19c-.36.51-1.16,1.47-.34,1h3.17l-.31-.18,1.55,2.69-.24.85-4.2,1.1.22.14c2.87,1.85,6.39-2.55,3.7-4.8L595,790c-1.15-1-3.26-1.4-4.35,0-1.43,1.85-1.71,4.5.66,5.79a3.56,3.56,0,0,0,3.38-.05,4.18,4.18,0,0,0,1.52-1.3c.24-.32,1.24-1.25.57-.9l-2.59.34.54.19c3.44,1.24,5.33-3.34,3.3-5.67a44,44,0,0,1-6.43-8.68c-1.36-2.62-5.8-1.45-5.64,1.53s.59,5.68.75,8.55a47.58,47.58,0,0,0,.83,7.75,1.59,1.59,0,0,0,3,0Z" transform="translate(-24.67 -56.89)"/><path class="cls-2" d="M616,777.73c3.35,2,7.44,1.79,10.61,4.3l1.67-6.32c-5.64,1.24-11.28,2.53-16.92,3.8l3,7.19a8.26,8.26,0,0,1,7.42-1.58c5.34,1.06,7.65-6.84,2.27-8.24s-10.32.4-14.46,3.64c-3.29,2.57.35,7.42,3.83,6.58,5.61-1.36,11.23-2.7,16.83-4.09,3.45-.86,3.34-5.09.9-6.91-3.89-2.91-12.82-5.16-15.45.66a.73.73,0,0,0,.26,1Z" transform="translate(-24.67 -56.89)"/><path class="cls-2" d="M658.36,732.38c.9-6.34,1.13-12.87,1.65-19.25l-4.55,2.61a21.58,21.58,0,0,1,6.2,7.71l3.22-5.6a1.84,1.84,0,0,1-1.78-.92c-1.69-2.42-6.16-2.52-6.85.9-.73,3.6-.58,7.43,1.6,10.52s8.08,1.33,6.58-2.77c-.73-2-1.38-3.6-.94-5.75l-6.85.9a9.75,9.75,0,0,0,8.25,4.58,3.76,3.76,0,0,0,3.22-5.6,23.71,23.71,0,0,0-9.58-9.16c-1.89-1-4.7.21-4.55,2.61.41,6.23.51,12.63,1.3,18.83.2,1.56,2.82,2.35,3.09.42Z" transform="translate(-24.67 -56.89)"/><path class="cls-2" d="M690.62,702.38c3.32,1.89,7.13,2,10.87,2.24l-2.3-8.5-18,10.08c-5.18,2.9-.52,10.9,4.65,8L703.8,704c4.12-2.34,2-8.24-2.3-8.5-3.37-.2-6.88-.56-10.07.75-2.52,1-3.53,4.57-.8,6.13Z" transform="translate(-24.67 -56.89)"/><path class="cls-2" d="M719.94,652.39c2.1-7.27.4-15.71.82-23.2l-8.46,2.29,7.47,15c2.64,5.31,10.66.64,8-4.66l-7.6-14.94c-2.42-4.75-9.39-1.35-8.3,3.5,1.63,7.26,1.38,15.68,4.6,22.45.73,1.54,3.07,1,3.5-.46Z" transform="translate(-24.67 -56.89)"/><path class="cls-2" d="M741.87,620.13c4.57,1.14,8.83-.33,13.25-1.49l-3.63-6.24a35.58,35.58,0,0,1-7.79,7.13c-2.91,1.84-6.35,3-9.1,5-3.6,2.6-1.35,7.53,2.92,6.92,7.31-1,14.76-8.36,19.25-13.78,2.24-2.71.22-7.34-3.63-6.24-4.37,1.25-8.79,2.15-12.13,5.43a2,2,0,0,0,.86,3.26Z" transform="translate(-24.67 -56.89)"/><path class="cls-2" d="M755.46,585.41a233.51,233.51,0,0,0-2.83-23.64l-6.63,2.8c2.37,4.3,4.21,8.82,7.09,12.84,3.39,4.72,11.3.18,7.87-4.6-2.86-4-6.23-7.64-8.69-11.9-2.15-3.72-7.36-1.11-6.63,2.8A224.59,224.59,0,0,0,750.89,586c.72,2.43,4.74,2.08,4.57-.62Z" transform="translate(-24.67 -56.89)"/><path class="cls-2" d="M782.41,530c5-.69,10-2,15-2.92l-3.06-7.25c-7.49,4.94-14.71,10.2-21.94,15.52-4.76,3.51-.07,11.56,4.67,8,7.47-5.63,14.9-11.28,22.07-17.28,3-2.52-.21-7.92-3.86-6.63-4.78,1.69-9.76,2.92-14.47,4.78-3.64,1.44-2.22,6.31,1.6,5.79Z" transform="translate(-24.67 -56.89)"/><path class="cls-2" d="M788.33,493.32c1.12-3.4,0-6.93-1.3-10.13-1.55-3.95-3.38-7.81-5.09-11.69l-7.13,5.5c3.67,2.94,7.29,6,11.08,8.76,4.16,3.07,9.55-3.86,5.56-7.2-3.31-2.77-6.8-5.34-10.22-8-3.93-3-9.65.63-7.13,5.5,3.08,5.93,6,15.47,12.8,18.06a1.18,1.18,0,0,0,1.43-.81Z" transform="translate(-24.67 -56.89)"/><path class="cls-2" d="M803.52,446.48c4.52.36,9-2.49,12.89-4.44l-6.24-6.24c-4.2,6-9.29,10.72-14.52,15.74-3.63,3.49,1.26,10.27,5.52,7.16,6.69-4.88,12.19-11.51,16.87-18.29,2.77-4-2.49-8.15-6.24-6.24-3.92,2-8.49,3.89-10.89,7.77-1.29,2.08.43,4.37,2.61,4.54Z" transform="translate(-24.67 -56.89)"/><path class="cls-2" d="M808.22,397.6c3.39-6.68-2.36-16.3-6.69-21.19-2.07-2.34-5.22,1-3.36,3.36,3.32,4.2,5.44,9.1,8.8,13.22,3.13,3.83,8.43-1.61,5.41-5.41-3.23-4.06-7.52-7.13-10.85-11.17l-3.36,3.36a28.69,28.69,0,0,1,6,9.46c1,2.74,1.31,5.84,2.81,8.36a.74.74,0,0,0,1.26,0Z" transform="translate(-24.67 -56.89)"/><path class="cls-2" d="M820.84,357.05c2.59.29,5.15.71,7.75.83l-2.06-5c-2.58,2.25-17.43,16.14-12.29,19.91,2.53,1.85,5.13-2.6,6.23-4.17A71.81,71.81,0,0,1,830.65,357c1.89-1.76.38-4.94-2.06-5-2.6,0-5.16.24-7.75.38a2.31,2.31,0,0,0,0,4.61Z" transform="translate(-24.67 -56.89)"/><path class="cls-2" d="M784.73,290.54q-2.57-5.58-5.2-11.13l-5.13,4a145.59,145.59,0,0,1,12,12.44c2.84,3.33,7.76-1.55,4.83-4.83A167.84,167.84,0,0,0,779,278.75a3.28,3.28,0,0,0-5.13,4q2.67,5.52,5.41,11c1.82,3.66,7.12.46,5.44-3.18Z" transform="translate(-24.67 -56.89)"/><path class="cls-2" d="M761.51,293.58c-1.07-.16-1.71-.74-2.85-.72A9.49,9.49,0,0,0,755,294a20.47,20.47,0,0,0-7.09,5.49,3.17,3.17,0,0,0,2.21,5.33A33.32,33.32,0,0,0,770,300c4.41-2.63.25-9.68-4-6.86a33.05,33.05,0,0,1-15.85,5.45l2.69,4.69a11.83,11.83,0,0,1,4.7-5c.89-.5,1.94-.78,2.79-1.35.57-.38.85-1,1.49-1.36a1.1,1.1,0,0,0-.26-2Z" transform="translate(-24.67 -56.89)"/><path class="cls-2" d="M710.94,275.48c-1.79-3.37-2.91-6.36-2.19-10.19l-6.4.84c1.9,2.79,4,5.36,5.84,8.24,1.68,2.69,2.89,6.61,5.34,8.62,2.61,2.13,6.7.85,6.79-2.81s-2.85-7.62-5.05-10.57a36.59,36.59,0,0,0-8.13-8.27c-2.75-1.91-5.63,1.23-5.14,4A27.24,27.24,0,0,0,707.67,278c1.6,1.84,4.34-.51,3.27-2.52Z" transform="translate(-24.67 -56.89)"/><path class="cls-2" d="M681.89,270.43a21.37,21.37,0,0,0-16.07,3.25c-3.23,2.13-2.39,8.46,2.16,8,5.35-.55,10.64-1.4,15.95-2.23,4.52-.71,9-.35,10.91-5.12a3,3,0,0,0-.78-3c-3-3.59-7.67-1.63-11.66-1-5.2.87-10.4,1.69-15.56,2.84l4.17,7.17a17.9,17.9,0,0,1,10.06-4c3.2-.25,4.48-5.43.82-6Z" transform="translate(-24.67 -56.89)"/><path class="cls-2" d="M641,251.6c1.71-.74,2.61-2.61,3-4.3a29.63,29.63,0,0,1,2.11-6.77l-7.27-2a54,54,0,0,0,.87,10.14c.59,3.3,1.4,6.22,4.83,7.43a3.06,3.06,0,0,0,3.39-1.38c1.75-2.48.78-5.13.13-7.8a58.32,58.32,0,0,1-1.41-8.39,3.92,3.92,0,0,0-7.67-1c-1.18,3-2.68,7-2.12,10.29.28,1.64,2.06,4.68,4.13,3.78Z" transform="translate(-24.67 -56.89)"/><path class="cls-2" d="M605.65,232.21c-3.92-2.49-9.45,1.95-12.95,3.8-3.89,2.07-1.73,7.42,2.09,7.72,4.51.36,10,1.26,14.39,0a4.33,4.33,0,0,0,0-8.29c-4.43-1.28-9.86-.35-14.39,0l2.09,7.72c2.58-1.93,5.53-3.78,7.76-6.12.9-.95,2.75-3.74,1-4.85Z" transform="translate(-24.67 -56.89)"/><path class="cls-2" d="M608.31,241.24a3.62,3.62,0,0,1,.86.51l-1.3-1.3c1.08,1.9,2.62,2.14,4.49,2.74a21.38,21.38,0,0,0,4.88,1.07,4.44,4.44,0,0,0,4.4-3.89,4.5,4.5,0,0,0-3.21-4.92,22.61,22.61,0,0,0-4.94-.63c-.61,0-1.26-.2-1.87-.2a4.88,4.88,0,0,0-3.18,1.43l1.6-.93a1.23,1.23,0,0,1-.91.07c-3.61-.12-4,4.95-.82,6Z" transform="translate(-24.67 -56.89)"/><path class="cls-2" d="M574.47,206.41c1.56-.34,2.14-2,2.88-3.24a38.78,38.78,0,0,1,4.06-5.93l-4.62-2.69c-.5,2.41-1.48,4.68-1.85,7.14a20.52,20.52,0,0,0,.71,7.72c1.33,5.7,10.17,3.29,8.78-2.42-.47-1.93-.71-3.89-1.24-5.8a17.23,17.23,0,0,1-1-5.9c.24-2.88-3.79-3.55-5.15-1.39a25.59,25.59,0,0,0-3.82,8.88c-.12.69-.43,4,1.22,3.63Z" transform="translate(-24.67 -56.89)"/><path class="cls-2" d="M528.09,155.06l-.93-.73.74,1.79c.62-5-7.55-7.87-11.07-9.47-4.31-2-9.79,3.54-5.52,7.15,5.71,4.83,11.28,9.89,17.19,14.47,4.53,3.51,11-2.42,6.5-6.5-5.54-5-11.5-9.63-17.25-14.41l-5.52,7.15c3.55,1.59,10.63,6.68,14.41,3.79l-1.95.25,1.09.46c2.14.9,4.11-2.53,2.3-3.95Z" transform="translate(-24.67 -56.89)"/><path class="cls-2" d="M521,124.12c2-1.8,3.3-4,5.55-5.56l-6.41-3.68c-.21,3.52-.44,7-1,10.53-.47,3.08-1.6,6-.52,9a3.52,3.52,0,0,0,5.81,1.53c2.64-2.65,2.74-6.2,3.24-9.77a92.29,92.29,0,0,0,1-11.27c.07-3.91-4.6-5.33-7.27-3s-5.49,5.21-6.21,8.86a3.51,3.51,0,0,0,5.82,3.39Z" transform="translate(-24.67 -56.89)"/><path class="cls-2" d="M492,803.6a47.91,47.91,0,0,0,.82-7.75c.16-2.87.58-5.68.74-8.55s-4.27-4.16-5.64-1.53a44,44,0,0,1-6.42,8.69c-2,2.33-.15,6.92,3.3,5.67l.54-.19-2.59-.34c-.5-.26.08.26.36.62a5.45,5.45,0,0,0,1.35,1.42,3.79,3.79,0,0,0,3.76.21c2.38-1.28,2.08-4,.66-5.79-1.08-1.39-3.2-1-4.35,0l-.2.17c-2.66,2.23.8,6.67,3.7,4.8l.22-.14-4.2-1.1-.24-.85,1.55-2.69-.31.18h3.17c.81.42.2-.14-.16-.73a4.73,4.73,0,0,0-1.37-1.5,4.16,4.16,0,0,0-3.69-.6l3.3,5.67c3.29-3,5.47-7.11,7.15-11.15l-5.94-.8c.14,2.87.54,5.68.68,8.55a47.56,47.56,0,0,0,.77,7.75,1.59,1.59,0,0,0,3,0Z" transform="translate(-24.67 -56.89)"/><path class="cls-2" d="M463.85,782.85c-2.63-5.82-11.56-3.56-15.45-.65-2.43,1.82-2.54,6.06.9,6.91,5.61,1.39,11.22,2.72,16.84,4.08,3.48.84,7.13-4,3.83-6.58-4.14-3.23-9.23-5-14.47-3.63s-3.08,9.31,2.27,8.24a8.26,8.26,0,0,1,7.43,1.57l3-7.19c-5.64-1.26-11.27-2.55-16.92-3.78l1.67,6.32c3.16-2.51,7.26-2.35,10.61-4.31a.73.73,0,0,0,.26-1Z" transform="translate(-24.67 -56.89)"/><path class="cls-2" d="M424.27,738.1c.78-6.2.88-12.59,1.28-18.83.15-2.4-2.65-3.62-4.55-2.61a23.72,23.72,0,0,0-9.57,9.17,3.76,3.76,0,0,0,3.22,5.6,9.74,9.74,0,0,0,8.25-4.58L416,726c.44,2.14-.22,3.79-.94,5.76-1.48,4.07,4.39,5.9,6.58,2.77s2.32-6.93,1.59-10.52c-.7-3.42-5.16-3.33-6.85-.9a1.84,1.84,0,0,1-1.78.92l3.22,5.6a21.59,21.59,0,0,1,6.19-7.71l-4.55-2.61c.52,6.37.76,12.91,1.67,19.25.28,1.92,2.89,1.16,3.09-.42Z" transform="translate(-24.67 -56.89)"/><path class="cls-2" d="M388.08,702.43c-3.19-1.3-6.7-.95-10.07-.74-4.33.27-6.44,6.16-2.3,8.5l17.94,10.14c5.17,2.93,9.84-5.06,4.65-8l-18-10.06-2.3,8.5c3.74-.25,7.55-.36,10.87-2.25,2.74-1.57,1.72-5.1-.8-6.13Z" transform="translate(-24.67 -56.89)"/><path class="cls-2" d="M363,659c3.21-6.78,3-15.19,4.58-22.45,1.07-4.8-5.86-8.3-8.3-3.5L351.71,648c-2.68,5.29,5.33,10,8,4.66l7.46-15-8.46-2.29c.43,7.49-1.26,15.93.85,23.2.43,1.47,2.76,2,3.5.46Z" transform="translate(-24.67 -56.89)"/><path class="cls-2" d="M338.42,623.1c-3.35-3.28-7.75-4.17-12.13-5.42-3.84-1.09-5.88,3.52-3.63,6.24,4.5,5.43,12,12.74,19.26,13.77,4.23.59,6.54-4.3,2.92-6.92-2.75-2-6.2-3.18-9.11-5a35.53,35.53,0,0,1-7.8-7.12l-3.63,6.24c4.42,1.15,8.69,2.62,13.25,1.48a2,2,0,0,0,.86-3.26Z" transform="translate(-24.67 -56.89)"/><path class="cls-2" d="M328.5,592.27a224.55,224.55,0,0,0,5.24-22.33c.72-3.87-4.47-6.56-6.63-2.8-2.45,4.26-5.82,7.92-8.68,11.91-3.42,4.78,4.48,9.33,7.87,4.6,2.88-4,4.71-8.54,7.07-12.84l-6.63-2.8a233.51,233.51,0,0,0-2.81,23.65c-.17,2.67,3.85,3.08,4.57.62Z" transform="translate(-24.67 -56.89)"/><path class="cls-2" d="M298.51,530.47c-4.71-1.85-9.7-3.08-14.48-4.77-3.65-1.28-6.88,4.11-3.86,6.63,7.18,6,14.61,11.64,22.09,17.26,4.74,3.57,9.44-4.48,4.67-8-7.23-5.31-14.46-10.56-22-15.5l-3.06,7.25c5,.86,10,2.22,15,2.9,3.8.52,5.25-4.35,1.6-5.79Z" transform="translate(-24.67 -56.89)"/><path class="cls-2" d="M322.33,295.87a58.93,58.93,0,0,0,9.49,6.79l1.93-7.13a75.18,75.18,0,0,1-18.09-4.16c-4.53-1.55-6.11,5.25-1.93,7a71.92,71.92,0,0,0,20,4.81c3.93.43,5-5.34,1.93-7.13a59,59,0,0,0-10.56-5c-2.69-.93-4.9,2.92-2.79,4.79Z" transform="translate(-24.67 -56.89)"/><path class="cls-2" d="M365.3,281.32a27.46,27.46,0,0,0,5.17-5.93c1.89-2.6,3.9-5.11,5.88-7.64L371.7,265a117.64,117.64,0,0,0-2.94,11.77c-.82,4,5.29,5.75,6.18,1.7a125.79,125.79,0,0,0,2.24-12.74c.33-2.88-3.89-3.61-5.2-1.41-1.57,2.63-3.07,5.31-4.73,7.88-1.52,2.35-3.25,4.75-4,7.46-.32,1.09,1.07,2.39,2.09,1.61Z" transform="translate(-24.67 -56.89)"/><path class="cls-2" d="M413,269.1c2.36.69,5.51,1.25,7.39,2.89l2.48-6a29.8,29.8,0,0,1-9-.14c-2.79-.52-5.05-1.65-7.91-1.24-2.41.35-2.44,3.36-1.28,4.83,3.56,4.5,13.08,4.21,18.22,3.57,3.6-.45,5.13-5.9.93-6.89-3.48-.82-6.48-2.12-10.13-2a2.54,2.54,0,0,0-.67,5Z" transform="translate(-24.67 -56.89)"/><path class="cls-2" d="M458.42,243.64c2.88-.57,3.93-3.81,5.12-6.18,1.57-3.13,3.1-6.28,4.61-9.44l-6-1.62a27.3,27.3,0,0,1-1.26,11c-1.32,4,5.11,5.81,6.36,1.75a32.16,32.16,0,0,0,1.33-12.78c-.28-2.81-4.51-4.83-6-1.62-1.56,3.38-3.11,6.75-4.61,10.16-1.12,2.54-2.87,5.28-1.41,8a1.67,1.67,0,0,0,1.84.75Z" transform="translate(-24.67 -56.89)"/><path class="cls-2" d="M494.37,223.58c1.73,1,3.64,1,5.57,1.48a62.86,62.86,0,0,1,6.56,2l-1-7.46a24.62,24.62,0,0,1-7.75,2.5c-2.7.36-5.31-.2-8,0-3.33.24-5.63,5.36-1.9,7,6.71,3,15.54.93,21.75-2.47,3.17-1.73,2.29-6.47-1-7.46-4.2-1.27-11.39-1.88-14.65,1.73a1.71,1.71,0,0,0,.34,2.65Z" transform="translate(-24.67 -56.89)"/><path class="cls-2" d="M518.82,199.45c1.64-5.12,1.17-11.12,1.38-16.43l-6,.81c1.56,4,2.59,8.15,4.24,12.09,1.82,4.34,9,2.5,7.2-2-1.72-4.26-4-8.23-5.86-12.46-1.25-2.91-5.67-1.26-5.69,1.54,0,5.32-.74,11.25.68,16.43a2.12,2.12,0,0,0,4,0Z" transform="translate(-24.67 -56.89)"/><path class="cls-2" d="M563.72,149.56A37.65,37.65,0,0,0,573.4,151l-2.61-6.29a19.49,19.49,0,0,1-9.87,5.52c-4.69,1.14-2.68,8.12,2,7.18a24.67,24.67,0,0,0,13.1-7.49c2.12-2.28.69-6.34-2.61-6.29a37.71,37.71,0,0,0-9.68,1.5,2.34,2.34,0,0,0,0,4.48Z" transform="translate(-24.67 -56.89)"/><path class="cls-2" d="M564,132.55c-1-4.27-2.87-8.43-4.12-12.67l-4.69,1.29a32,32,0,0,0,8.19,12c1.46,1.35,4.6.54,4.34-1.8-.56-5-3.6-12.9-9.53-13a1.59,1.59,0,0,0-1.52,2,8.71,8.71,0,0,0,1.07,2.45c.72,1,1.74,1.68,2.45,2.68a15.56,15.56,0,0,1,2.54,6.53l4.25-2.47a22.57,22.57,0,0,1-7.1-9.7c-1.09-2.88-5.49-1.8-4.69,1.29,1.12,4.33,2.45,9.22,4.82,13.05a2.19,2.19,0,0,0,4-1.68Z" transform="translate(-24.67 -56.89)"/><text class="cls-3" transform="translate(397.62 973.86) rotate(-0.03)">SOS</text></svg>