<?xml version="1.0" encoding="utf-8"?>
<!-- Generator: Adobe Illustrator 21.1.0, SVG Export Plug-In . SVG Version: 6.00 Build 0)  -->
<svg version="1.1" id="Layer_1" xmlns="http://www.w3.org/2000/svg" xmlns:xlink="http://www.w3.org/1999/xlink" x="0px" y="0px"
	 viewBox="0 0 1081.6 1146" style="enable-background:new 0 0 1081.6 1146;" xml:space="preserve">
<style type="text/css">
	.st0{clip-path:url(#SVGID_2_);fill:#F27574;}
	.st1{opacity:0.15;clip-path:url(#SVGID_2_);}
	.st2{fill:#FFFFFF;}
	.st3{clip-path:url(#SVGID_2_);}
	.st4{font-family:'GillSansMT-Condensed';}
	.st5{font-size:229.2616px;}
</style>
<g>
	<defs>
		<circle id="SVGID_1_" cx="544.3" cy="580.3" r="516.1"/>
	</defs>
	<clipPath id="SVGID_2_">
		<use xlink:href="#SVGID_1_"  style="overflow:visible;"/>
	</clipPath>
	<circle class="st0" cx="540.8" cy="573" r="516.1"/>
	<g class="st1">
		<path class="st2" d="M300.7,1013.5c10.2-55.5,0.5-112.3-26.9-158.9c-17.7-30.1-42.6-56.1-55.3-88.6c-8.3-21.3-11-44.4-13.7-67.4
			c-7.7-66-15.5-131.9-23.2-197.9c-2.7-23,0-54.1,24.2-61.7c25.7-8.1,42.7,20.1,49.9,43.3c17.9,57.6,35.8,115.2,53.7,172.8
			c75.9-151,49.3-324.5,117.4-478.2c4.3-9.8,12-21.3,22.8-20.8c7.3,0.3,12.2,6.4,15.5,12.3c12.9,23.1,14.3,51,14.4,78.1
			c0.2,68.9-6.9,138.5-21.2,207.3c14.6,4.3,24.5-16.4,26.3-31.3c10.4-89.4,25.9-178.6,46.5-267.3c3.3-14.1,7.6-29.7,20.1-38.8
			c15.6-11.4,38.3-7.2,50.8,4.9c12.5,12.2,16.8,30.1,18.6,47.6c8.4,82-28.2,166.3-30.9,249.6c-0.4,11.6,0.3,24,7.9,32.5
			c16.3-6.2,22.4-25.1,25.9-41.1c14.3-65.4,27.2-130.9,38.6-196.6c2.5-14.3,5.1-29.1,13.8-41.5s25.3-21.7,39.4-17.5
			c16.9,5,21,25.1,22,42.2c4.4,78.1-5.8,158.1-29.9,235.5c-6.9,22.1-13,50.4,6.1,62.2c27.2-61.1,54.4-122.2,81.5-183.3
			c8-17.9,27.6-40.2,43.5-30.2c4.5,2.8,6.9,7.7,8.8,12.5c17.4,44.3,5.4,96.4-12.7,143.7c-50.6,132-80.9,262.2-152.9,382.7
			c-41.8,69.9-85.8,138.5-126.8,208.9c-21.1,36.3-41.5,73-60.4,110.5c-17.7,35.2-30,75.7-50.3,109.1"/>
	</g>
	<g class="st3">
		<g>
			<g>
				<g>
					<path class="st2" d="M476.9,491.8c-2.8,18-0.4,35.4,3.8,52.9c2,8.1,4.6,15.7,9.7,22.5c4.7,6.2,10.9,11.1,17.5,15.1
						c25.9,15.9,64.8,25.5,88.8,0.7c6.9-7.1,10.8-16.4,14.9-25.3c4.7-9.9,9.4-19.9,14-29.8c2.5-5.4-5.5-10.1-8-4.7
						c-7,14.8-13.2,30.4-21.3,44.6c-7.2,12.6-19.7,19.8-34.1,21c-15.2,1.2-30.1-4-43.3-11c-13.6-7.2-23.2-16.3-29.9-30.3
						c-8.1-16.9-11.2-37-10.5-55.6C478.5,491.1,477,490.9,476.9,491.8L476.9,491.8z"/>
				</g>
			</g>
			<g>
				<g>
					<path class="st2" d="M466.4,488.3c4.8-11.6,21.3-25.2,33.9-16.2c12.3,8.8,22.7,19.8,35.8,27.5c13.1,7.8,27.6,13.2,42.2,17.4
						c7.4,2.1,14.9,3.8,22.5,5.2c7.4,1.3,15.4,5.2,23,3.5c3.2-0.7,3.2-4.8,0.8-6.4c-6.7-4.6-17-4.1-24.7-6.3
						c-8.4-2.4-17-4.2-25.4-6.8c-16.4-5.2-32.5-12.2-46-23c-6.2-4.9-11.7-11.2-18.5-15.3c-5.8-3.4-14.1-3.8-20.6-2.9
						c-12,1.8-23.4,10.3-24.2,23.1C465.1,488.9,466.2,488.9,466.4,488.3L466.4,488.3z"/>
				</g>
			</g>
			<g>
				<g>
					<path class="st2" d="M470.4,494.3c-11.6-12.5-0.7-29.5,11.4-36.3c15.2-8.5,32-8.8,48.7-6.1c16.7,2.7,32.5,9.5,48.2,15.6
						c8.1,3.2,16.3,6.3,24.4,9.5c7.4,3,13.8,6.8,18.3,13.5c4.4,6.7,6.7,14.6,8.9,22.2c1.2,4.4,3.2,9.6,2,14.2
						c-1.1,3.8-4.6,4.8-7.7,6.5c-1.6,0.9-1.8,3.2-0.6,4.5c6,6.1,14.4-1,16.7-7.3c3.2-8.7-1-19.3-3.7-27.7c-2.6-8.2-6.1-16.3-12-22.7
						c-6.8-7.6-16.4-10.9-25.6-14.5c-20.8-8.1-41.8-18-63.8-22.2c-19.1-3.6-41.3,0.2-57.7,10.9c-13.6,8.9-23.4,28.5-9.7,41.9
						C469.7,497.7,471.7,495.6,470.4,494.3L470.4,494.3z"/>
				</g>
			</g>
			<g>
				<g>
					<path class="st2" d="M526.2,443.5c6.3-13.3,20.2-17.5,32.9-22.3c15.2-5.7,30.5-10.9,45.1-18c15-7.2,29.8-15.2,43.8-24.3
						c10.6-6.8,22.8-19.6,14.6-33c-7.7-12.6-29.3-9.4-40.8-5.3c-2.9,1-1.7,5.1,1.3,4.6c8.7-1.5,18.2-3.3,26.4,0.9
						c8,4.1,7.7,12.3,2,18.4c-6.3,6.7-15.8,11.1-23.6,15.7c-8.2,4.7-16.5,9.2-25,13.4c-8.4,4.2-16.8,8.6-25.4,12.4
						c-7.8,3.5-16,6.2-23.8,9.7c-12.1,5.3-24.3,14.2-28.4,27.3C525.2,443.6,526,444,526.2,443.5L526.2,443.5z"/>
				</g>
			</g>
			<g>
				<g>
					<path class="st2" d="M506.2,321.4c-5.1-3.1-12.7-2.4-18.3-1.2c-6.5,1.4-12.8,4.5-17.7,9.1c-9.4,8.9-12.6,24.5-4.9,35.5
						c9,12.8,25.2,13.5,39.2,15.8c7.6,1.2,14.7,3.5,20.9,8.3c2.7,2.2,4.8,4.9,7.4,7.2c2.7,2.4,5.7,4.1,8.1,6.8
						c0.4,0.4,1.1,0.1,1.1-0.5c-0.5-5.1-0.8-10.3-4.2-14.4c-3.6-4.4-8.4-8.1-13.3-10.8c-12.3-6.7-26.3-5.2-39.3-9.5
						c-5.8-1.9-11.6-5.4-13.9-11.4c-2.1-5.4-1-11.9,1.6-16.9c3.1-5.9,8.3-9.9,14.5-12.2c6-2.2,12.6-1.8,18.5-4
						C506.7,323,507,321.9,506.2,321.4L506.2,321.4z"/>
				</g>
			</g>
			<g>
				<g>
					<path class="st2" d="M643.8,378.3c-2.9,3.5-5.4,6.1-7.1,10.5c-1.6,4-3.1,8-4.5,12.1c-3.1,9-5.7,18.2-8,27.5
						c-2.1,8.7-2,17.7-2.9,26.6c-0.5,4.6-1.2,9.1-1.7,13.7c-0.5,4.1-1.9,9.3-0.3,13.2c0.4,0.9,1.6,1.3,2.2,0.3c2-3.4,1.6-7.8,2-11.7
						c0.5-4.7,1.1-9.4,2-14.1c1.8-8.7,5.5-17,7.6-25.6c2.1-8.7,4.6-17.3,7.4-25.7c1.4-4.1,2.8-8.2,4.3-12.2c1.7-4.7,2-8.4,2.5-13.2
						C647.5,378.1,644.9,377,643.8,378.3L643.8,378.3z"/>
				</g>
			</g>
			<g>
				<g>
					<path class="st2" d="M479.2,374c-1,5.3,2.2,9.8,4,14.7c2.2,6.2,3.7,12.5,4.9,18.9c0.6,3.3,1.6,6.4,1.9,9.8
						c0.3,3.1,0.3,6.2,0.4,9.3c0.3,5.7-1.8,12.4-0.2,17.8c0.1,0.5,0.8,0.7,1.1,0.3c4-4.2,4.5-12.5,5.4-18.1c1-6.5,1.2-14.3,0.4-20.7
						c-0.9-7.3-2.9-14.5-5.7-21.3c-1.9-4.7-3.9-11.7-9.8-12.5C480.6,372.1,479.3,373.1,479.2,374L479.2,374z"/>
				</g>
			</g>
			<g>
				<g>
					<path class="st2" d="M648,390.4c6.8-4.3,14.7,2.2,15,9.4c0.2,7.6-4.6,14.4-8.2,20.9c-3.7,6.8-6.6,14.1-9,21.4
						c-2.3,6.7-5.1,14.7-4.9,21.8c0,0.7,0.9,0.9,1.3,0.4c3.1-4.4,5-9.8,7.4-14.6c2.5-4.9,5-9.9,7.6-14.7
						c4.8-8.8,11.4-17.5,13.9-27.3c2.2-8.3,0.8-17.8-6.4-23.1c-6.6-4.9-14.8-2.7-18,4.8C646.5,390,647.1,390.9,648,390.4L648,390.4z
						"/>
				</g>
			</g>
			<g>
				<g>
					<path class="st2" d="M664,379.6c10.4-1.1,17.7,9.1,19.6,18.2c2.3,10.6-1.4,22.9-6.2,32.3c-4.8,9.4-13,16.3-19.1,24.8
						c-6.4,9-9.3,18.2-11.6,28.9c-0.5,2.3,3.1,4.2,4.1,1.7c2.6-6,6.3-11.1,9.7-16.6c3.3-5.5,6.7-10.8,10.9-15.7
						c4.3-5,8.9-9.6,12.3-15.3c3.2-5.3,5.5-11.2,7.2-17.2c3.1-10.7,4.6-24.4-2.1-34.2c-5.5-8-16.1-11.4-25.1-8.4
						C663,378.3,663,379.7,664,379.6L664,379.6z"/>
				</g>
			</g>
			<g>
				<g>
					<path class="st2" d="M450.4,350.2c-15.1,1.8-9.3,24.6-5.9,33.6c2.7,7.1,6.8,13.4,10.1,20.3c1.6,3.4,2.7,7.1,4.3,10.5
						c1.7,3.5,3.8,6.8,5.6,10.3c0.4,0.8,1.9,0.7,2.1-0.3c0.9-5.5,1.3-11.4-0.5-16.8c-1.9-5.7-4.8-11.1-7.6-16.3
						c-5-9.2-13.8-26.5-5.8-35.9C454.1,353.7,453.3,349.8,450.4,350.2L450.4,350.2z"/>
				</g>
			</g>
			<g>
				<g>
					<path class="st2" d="M422.8,352.9c-8.5,1.2-13.7,9.6-15.7,17.4c-2.5,9.8-0.6,19.9,3.5,28.9c4.9,10.8,12.9,19.8,19.9,29.3
						c3.6,4.8,6.9,9.7,9.6,15.1c2.7,5.4,6.6,11.4,8.3,17.1c0.3,1,1.9,1.1,2.1,0c0.9-5.1,1.9-9.3,0.5-14.5c-1.3-5-4-9.7-6.7-14
						c-5.9-9.4-13.4-17.6-19.5-26.8c-5.5-8.2-10-17.4-9.9-27.5c0.1-9.2,4-16.1,9.2-23.4C424.7,353.6,423.7,352.8,422.8,352.9
						L422.8,352.9z"/>
				</g>
			</g>
			<g>
				<g>
					<path class="st2" d="M511.9,376c-0.3-3.4-0.8-6.3,1-9.4c1.8-3.1,4.7-5.8,7.8-7.5c7.2-3.7,15.8-3.9,23.6-5.3
						c17-3,33.3-9.4,49.1-15.9c12-4.9,25.3-12.9,24.3-27.8c-1-14.4-13.2-24.1-26.4-27.2c-9.2-2.1-17.4-1.5-26.4,0.8
						c-8,2-18.7,3.6-25.1,9.1c-1.5,1.3,0.2,3.3,1.8,3c3.8-0.6,7.3-2.5,10.9-3.7c4.1-1.3,8-2,12.4-2.2c3.9-0.1,7.7,0.6,11.6,0.7
						c3.9,0.2,7.8,0.2,11.7,1.1c6.7,1.4,13.4,4.4,17.3,10.3c3.6,5.4,4.4,12.3,0.3,17.6c-3.9,5-10.3,7.7-16,10
						c-7.6,3.1-15.3,6.1-23,8.7c-7.5,2.6-15.2,4.8-23,6.3c-7.1,1.3-14.4,1.7-21.3,4c-6.7,2.2-13,6.1-16.1,12.6
						c-2.5,5.3-3.3,12.1,0.5,16.9C508.5,380,512.2,378.4,511.9,376L511.9,376z"/>
				</g>
			</g>
			<g>
				<g>
					<path class="st2" d="M533.1,329.1c-3.5-5-9-8.3-9.7-15c-0.5-5.1,2.1-10.6,4.8-14.7c2.8-4.2,6.7-7.6,11.2-10
						c3.5-1.8,8.3-3.4,10.4-7.1c0.2-0.4,0.1-0.7-0.1-1c-4-4.7-11.8-1.7-16.1,0.8c-5.9,3.4-11,8.5-14.4,14.4c-3.5,6-6,13.6-4.6,20.6
						c1.4,7,6.9,15.8,14.4,17.3C531.9,335,535.1,331.9,533.1,329.1L533.1,329.1z"/>
				</g>
			</g>
			<g>
				<g>
					<path class="st2" d="M540.8,315.8c8,0.7,15.5-1.9,22.2-6.1c1.7-1,3.3-2.5,5-3.4c3.1-1.6,5.3-0.4,8.1,0.9
						c1.8,0.8,4.3,1.6,5.8,2.9c-0.6-1.6-0.8-1.6-0.6,0.1c0,0.9-0.2,1.8-0.5,2.7c-2.8,9-12.4,2-16.8,8.4c-4.1,5.9,6.1,6.5,9.4,6.4
						c7.4-0.3,13.3-3.8,15.9-11c2.2-6.1,1.7-12-4.3-15.2c-6.8-3.7-13.9-4.3-20.2,0.8c-3.6,2.9-6.7,6-11,7.9c-4.3,2-8.8,3.1-13.4,3.9
						C539.5,314.3,539.9,315.7,540.8,315.8L540.8,315.8z"/>
				</g>
			</g>
			<g>
				<g>
					<path class="st2" d="M503.6,601.6c-1.4,3,0.2,6,1.3,8.9c1.8,4.4,3.3,8.8,4.4,13.4c2.2,10.1,2.1,20.6,2.6,30.9
						c1,20.3-2.3,39.8-4.1,59.9c-1.8,20.6-2,41.3-1.6,61.9c0.2,10.5,0.6,21,1.1,31.5c0.2,5.3,0.5,10.5,0.8,15.8
						c0.2,3.9-0.2,8.1,3.7,10.2c0.8,0.4,1.9,0.5,2.7,0c5.6-3.8,2.7-14.2,2.4-20c-0.4-8.2-0.7-16.4-1-24.6
						c-0.6-16.7-0.8-33.5-0.2-50.2c0.6-16.5,2.2-32.8,4.3-49.2c2-16.4,1.3-32.4,0-48.8c-0.6-8.3-1.3-16.8-4-24.7
						c-1.6-4.8-5.3-15.6-11.8-15.2C503.9,601.3,503.6,601.4,503.6,601.6L503.6,601.6z"/>
				</g>
			</g>
			<g>
				<g>
					<path class="st2" d="M570.2,615.7c-6.5,0.4-11.1,7.4-14.3,12.3c-4,6.1-7.1,12.6-9.7,19.3c-5.5,14.2-8.1,29.3-9.3,44.4
						c-2.5,30.8,1.7,61.6,7.7,91.8c1.8,8.9,3.7,17.7,5.8,26.4c1.9,7.8,3.1,16.9,6.9,24c1.9,3.6,7.9,2,7.7-2.1
						c-0.3-6.6-2.9-13.4-4.5-19.8c-1.8-7.3-3.5-14.7-5-22c-3.2-15.1-6-30.3-7.8-45.6c-3.4-28.4-3.7-58.3,4.6-85.9
						c2.3-7.6,5.3-15,9.3-22c3.3-5.7,10.2-12.4,10.3-19.3C571.8,616.4,571.1,615.6,570.2,615.7L570.2,615.7z"/>
				</g>
			</g>
			<g>
				<g>
					<path class="st2" d="M479.4,580.1c0.7-5.8-7.4-7.5-11.6-7.2c-7.1,0.6-13.3,4.1-18.9,8.2c-6.5,4.8-12.3,10.5-19.1,14.9
						c-6.6,4.3-15.4,9.4-23.4,7.5c-0.4,1.4-0.8,2.9-1.2,4.3c7.4,1.5,11,9.8,16.9,13.9c6.2,4.2,13.7,6.3,21.1,6.7
						c15.6,0.8,33.1-6.1,45-15.9c4-3.3-1.1-9.7-5.5-7.1c-6.8,4.1-13.4,9.6-20.8,12.5c-6.7,2.6-13.8,4-21,3.5c-7.4-0.6-14.3-3.2-20-8
						c-4.6-3.8-8.6-8.2-14.5-9.9c-2.8-0.8-4,3.5-1.2,4.3c7.3,2.2,15.1,2.7,22.4-0.3c7-2.9,13-8,18.8-12.8
						c5.9-4.9,12.2-10.6,19.9-12.5C468.4,581.9,479,583.4,479.4,580.1L479.4,580.1z"/>
				</g>
			</g>
			<g>
				<g>
					<path class="st2" d="M609.9,585.9c-2.9,11.9,17,12.4,24.4,12.7c6.7,0.3,13.6-0.3,20.3-1.6c6.9-1.4,12.8-5.1,19.1-8.1
						c-1.2-0.9-2.5-1.9-3.7-2.8c-1.2,4.6-4.9,7.9-7.7,11.5c-2.3,2.9-4.2,6.1-6.3,9.1c-4.5,6.3-9.6,13.8-17,16.9
						c-8.8,3.8-13.8-2.3-20.6-6.8c-3.2-2-6.6-3.7-10.1-5c-1.9-0.7-4-1.5-6-1.4c-1.4,0-4.2,1.6-5.5,1.1c-4-1.7-4.4,4.7-1.2,4.3
						c1.9-0.3,3.6,2.2,5.2,3.1c2.2,1.2,4.8,1.7,7.1,2.8c4.4,2,8.1,4.9,12,7.7c7.3,5.5,15.7,6.1,24,2.2c8.5-4,13.7-11.4,17.5-19.7
						c2-4.4,4.1-9,6.7-13.1c2.5-3.8,5.3-6.9,6.8-11.3c0.6-1.7-1.3-3.7-3.1-3.1c-5.1,1.9-10.5,2.5-15.8,3.2
						c-5.2,0.7-10.3,1.6-15.5,1.8c-5,0.1-10-0.1-15-0.8c-2.2-0.3-11.3-0.8-12.7-3C612,584.4,610.2,584.5,609.9,585.9L609.9,585.9z"
						/>
				</g>
			</g>
		</g>
		<g>
			<g>
				<g>
					<path class="st2" d="M824.1,305.6c-8,39.8-13.4,79.9-22.1,119.6c-8.5,38.8-19,77.4-32.5,114.8c-25,69.5-60.5,134.9-111.4,188.9
						c-31.1,33-65.3,63.2-98.4,94.2c-4.4,4.1,2.2,10.6,6.5,6.5c29.9-28,60.6-55.5,89.3-84.8c26.6-27,50-56.7,69.8-89.1
						c39.9-65.4,65-138.9,80.6-213.6c4.7-22.6,8.7-45.3,12.4-68c3.7-22.6,7.1-45.3,8.9-68.2C827.3,304.3,824.4,303.9,824.1,305.6
						L824.1,305.6z"/>
				</g>
			</g>
			<g>
				<g>
					<path class="st2" d="M826.6,295.1c-47.9,2.9-96.8-10.6-141.2-27.6c-45.9-17.5-90.9-42.6-125.9-77.7
						c-10.9-10.9-20.4-23.1-27.6-36.7c-4-7.6-7.3-15.6-9.7-23.9c-2.3-7.6-2.4-17.1-6.9-23.7c-1.1-1.6-3.3-1.3-4,0.5
						c-2.5,6.9,0.3,15,2.2,21.8c2,7.2,4.5,14.1,7.5,20.9c5.8,12.9,13.6,24.8,22.8,35.5c17.8,20.9,40.3,37.5,63.1,52.5
						c20.2,13.4,42.2,23.9,64.6,33c25.1,10.2,51.1,18.3,77.6,23.9c25.3,5.3,52.3,8.8,77.9,4.3C828.7,297.8,828.3,295,826.6,295.1
						L826.6,295.1z"/>
				</g>
			</g>
			<g>
				<g>
					<path class="st2" d="M249,307.5c3.1,40.5,10.3,81.3,18.3,121.1c7.9,39.6,17.9,78.7,31.4,116.9c24.7,69.8,61.3,135.7,112,189.9
						c31.5,33.5,66.2,64.1,99.8,95.5c4.4,4.1,10.9-2.5,6.5-6.5c-29.5-27.6-59.7-54.6-88.1-83.4c-26.6-26.9-50-56.2-69.7-88.5
						c-39.6-64.8-63.9-137.4-81.5-210.9c-5.3-22.1-9.9-44.3-13.9-66.6c-4-22.6-7.3-45.4-11.8-67.9
						C251.7,305.3,248.8,305.7,249,307.5L249,307.5z"/>
				</g>
			</g>
			<g>
				<g>
					<path class="st2" d="M251.1,298.4c23.1,4,47.2,1.6,70.2-2.5c26.8-4.8,53.1-12.3,78.6-21.8c23.9-8.9,47.4-19.4,69.3-32.5
						c22.8-13.6,45.3-29.5,64.2-48.3c11.4-11.3,21.4-24.1,28.9-38.4c3.9-7.5,7.2-15.4,9.7-23.6c2.4-7.7,6-17.4,3.3-25.3
						c-0.6-1.8-2.9-2.1-4-0.5c-4.1,6.1-4.3,14.1-6.3,21.1c-2.2,7.6-5,15-8.5,22c-6.2,12.4-14.3,23.7-23.7,33.9
						c-18.1,19.5-40.2,35.3-62.6,49.4c-42.4,26.7-91.6,44.9-140.4,55.7c-25.6,5.7-52,9.3-78.3,7.7
						C249.8,295.3,249.4,298.1,251.1,298.4L251.1,298.4z"/>
				</g>
			</g>
			<g>
				<g>
					<path class="st2" d="M409.7,262.7c0.4,0.9,0.7,2,1.4,2.8c0.1,0.2,0.4,0,0.3-0.2c-0.2-1-0.9-1.9-1.4-2.7
						C409.9,262.4,409.6,262.5,409.7,262.7L409.7,262.7z"/>
				</g>
			</g>
			<g>
				<g>
					<path class="st2" d="M590.6,797.5c0.5-2.5,0.6-5.2,0.8-7.7c0.1-2.9,0.5-5.7,0.7-8.5c-2,0.3-4,0.5-5.9,0.8
						c1.7,4,3.9,8.2,7.2,11.1c1.1-1.9,2.2-3.8,3.3-5.7c-1.4-0.3-2.5-0.3-3.7,0.6c-0.5,0.4-0.8,0.7-1.2,1.2c-0.4,0.5-1.2,1.5-0.3,1
						c1.1,0,2.1,0,3.2,0c-0.1-0.1-0.2-0.1-0.3-0.2c0.5,0.9,1,1.8,1.5,2.7c-0.1,0.3-0.2,0.6-0.2,0.8c-1.4,0.4-2.8,0.7-4.2,1.1
						c0.1,0,0.1,0.1,0.2,0.1c2.9,1.8,6.4-2.6,3.7-4.8c-0.1-0.1-0.1-0.1-0.2-0.2c-1.1-1-3.3-1.4-4.3,0c-1.4,1.8-1.7,4.5,0.7,5.8
						c1.1,0.6,2.3,0.5,3.4-0.1c0.7-0.3,1.1-0.7,1.5-1.3c0.2-0.3,1.2-1.3,0.6-0.9c-0.9,0.1-1.7,0.2-2.6,0.3c0.2,0.1,0.4,0.1,0.5,0.2
						c3.4,1.2,5.3-3.3,3.3-5.7c-2.5-2.8-4.7-5.3-6.4-8.7c-1.4-2.6-5.8-1.4-5.6,1.5c0.2,2.9,0.6,5.7,0.7,8.5c0.1,2.6,0.3,5.2,0.8,7.7
						C587.9,799,590.3,799,590.6,797.5L590.6,797.5z"/>
				</g>
			</g>
			<g>
				<g>
					<path class="st2" d="M616,777.7c3.4,2,7.4,1.8,10.6,4.3c0.6-2.1,1.1-4.2,1.7-6.3c-5.6,1.2-11.3,2.5-16.9,3.8c1,2.4,2,4.8,3,7.2
						c2.4-1.8,4.5-2.2,7.4-1.6c5.3,1.1,7.7-6.8,2.3-8.2c-5.2-1.4-10.3,0.4-14.5,3.6c-3.3,2.6,0.3,7.4,3.8,6.6
						c5.6-1.4,11.2-2.7,16.8-4.1c3.5-0.9,3.3-5.1,0.9-6.9c-3.9-2.9-12.8-5.2-15.4,0.7C615.6,777.1,615.6,777.5,616,777.7L616,777.7z
						"/>
				</g>
			</g>
			<g>
				<g>
					<path class="st2" d="M658.4,732.4c0.9-6.3,1.1-12.9,1.7-19.2c-1.5,0.9-3,1.7-4.5,2.6c2.7,2.1,4.6,4.7,6.2,7.7
						c1.1-1.9,2.1-3.7,3.2-5.6c-0.8,0-1.4-0.3-1.8-0.9c-1.7-2.4-6.2-2.5-6.9,0.9c-0.7,3.6-0.6,7.4,1.6,10.5c2.2,3.1,8.1,1.3,6.6-2.8
						c-0.7-2-1.4-3.6-0.9-5.8c-2.3,0.3-4.6,0.6-6.9,0.9c2,2.9,4.7,4.5,8.3,4.6c2.8,0,4.6-3.2,3.2-5.6c-2.3-4-5.6-7-9.6-9.2
						c-1.9-1-4.7,0.2-4.5,2.6c0.4,6.2,0.5,12.6,1.3,18.8C655.5,733.5,658.1,734.3,658.4,732.4L658.4,732.4z"/>
				</g>
			</g>
			<g>
				<g>
					<path class="st2" d="M690.6,702.4c3.3,1.9,7.1,2,10.9,2.2c-0.8-2.8-1.5-5.7-2.3-8.5c-6,3.4-12,6.7-18,10.1
						c-5.2,2.9-0.5,10.9,4.7,8c6-3.4,12-6.8,17.9-10.2c4.1-2.3,2-8.2-2.3-8.5c-3.4-0.2-6.9-0.6-10.1,0.8
						C688.9,697.3,687.9,700.8,690.6,702.4L690.6,702.4z"/>
				</g>
			</g>
			<g>
				<g>
					<path class="st2" d="M719.9,652.4c2.1-7.3,0.4-15.7,0.8-23.2c-2.8,0.8-5.6,1.5-8.5,2.3c2.5,5,5,10,7.5,15
						c2.6,5.3,10.7,0.6,8-4.7c-2.5-5-5.1-10-7.6-14.9c-2.4-4.8-9.4-1.3-8.3,3.5c1.6,7.3,1.4,15.7,4.6,22.4
						C717.2,654.4,719.5,653.9,719.9,652.4L719.9,652.4z"/>
				</g>
			</g>
			<g>
				<g>
					<path class="st2" d="M741.9,620.1c4.6,1.1,8.8-0.3,13.3-1.5c-1.2-2.1-2.4-4.2-3.6-6.2c-2.3,2.7-4.8,5.2-7.8,7.1
						c-2.9,1.8-6.4,3-9.1,5c-3.6,2.6-1.4,7.5,2.9,6.9c7.3-1,14.8-8.4,19.2-13.8c2.2-2.7,0.2-7.3-3.6-6.2c-4.4,1.2-8.8,2.1-12.1,5.4
						C740,617.9,740.4,619.8,741.9,620.1L741.9,620.1z"/>
				</g>
			</g>
			<g>
				<g>
					<path class="st2" d="M755.5,585.4c-0.5-8-1.5-15.8-2.8-23.6c-2.2,0.9-4.4,1.9-6.6,2.8c2.4,4.3,4.2,8.8,7.1,12.8
						c3.4,4.7,11.3,0.2,7.9-4.6c-2.9-4-6.2-7.6-8.7-11.9c-2.1-3.7-7.4-1.1-6.6,2.8c1.4,7.6,3.1,15,5.3,22.3
						C751.6,588.5,755.6,588.1,755.5,585.4L755.5,585.4z"/>
				</g>
			</g>
			<g>
				<g>
					<path class="st2" d="M782.4,530c5-0.7,10-2,15-2.9c-1-2.4-2-4.8-3.1-7.2c-7.5,4.9-14.7,10.2-21.9,15.5c-4.8,3.5-0.1,11.6,4.7,8
						c7.5-5.6,14.9-11.3,22.1-17.3c3-2.5-0.2-7.9-3.9-6.6c-4.8,1.7-9.8,2.9-14.5,4.8C777.2,525.6,778.6,530.5,782.4,530L782.4,530z"
						/>
				</g>
			</g>
			<g>
				<g>
					<path class="st2" d="M788.3,493.3c1.1-3.4,0-6.9-1.3-10.1c-1.6-3.9-3.4-7.8-5.1-11.7c-2.4,1.8-4.8,3.7-7.1,5.5
						c3.7,2.9,7.3,6,11.1,8.8c4.2,3.1,9.5-3.9,5.6-7.2c-3.3-2.8-6.8-5.3-10.2-8c-3.9-3-9.7,0.6-7.1,5.5c3.1,5.9,6,15.5,12.8,18.1
						C787.5,494.4,788.2,493.9,788.3,493.3L788.3,493.3z"/>
				</g>
			</g>
			<g>
				<g>
					<path class="st2" d="M803.5,446.5c4.5,0.4,9-2.5,12.9-4.4c-2.1-2.1-4.2-4.2-6.2-6.2c-4.2,6-9.3,10.7-14.5,15.7
						c-3.6,3.5,1.3,10.3,5.5,7.2c6.7-4.9,12.2-11.5,16.9-18.3c2.8-4-2.5-8.2-6.2-6.2c-3.9,2-8.5,3.9-10.9,7.8
						C799.6,444,801.3,446.3,803.5,446.5L803.5,446.5z"/>
				</g>
			</g>
			<g>
				<g>
					<path class="st2" d="M808.2,397.6c3.4-6.7-2.4-16.3-6.7-21.2c-2.1-2.3-5.2,1-3.4,3.4c3.3,4.2,5.4,9.1,8.8,13.2
						c3.1,3.8,8.4-1.6,5.4-5.4c-3.2-4.1-7.5-7.1-10.8-11.2c-1.1,1.1-2.2,2.2-3.4,3.4c2.6,2.8,4.7,5.9,6,9.5c1,2.7,1.3,5.8,2.8,8.4
						C807.2,398.1,808,398.1,808.2,397.6L808.2,397.6z"/>
				</g>
			</g>
			<g>
				<g>
					<path class="st2" d="M820.8,357.1c2.6,0.3,5.1,0.7,7.8,0.8c-0.7-1.7-1.4-3.3-2.1-5c-2.6,2.2-17.4,16.1-12.3,19.9
						c2.5,1.9,5.1-2.6,6.2-4.2c3-4.3,6.4-8.1,10.2-11.6c1.9-1.8,0.4-4.9-2.1-5c-2.6,0-5.2,0.2-7.8,0.4
						C817.8,352.6,817.9,356.7,820.8,357.1L820.8,357.1z"/>
				</g>
			</g>
			<g>
				<g>
					<path class="st2" d="M784.7,290.5c-1.7-3.7-3.4-7.4-5.2-11.1c-1.7,1.3-3.4,2.6-5.1,4c4.2,3.9,8.2,8.1,12,12.4
						c2.8,3.3,7.8-1.5,4.8-4.8c-3.8-4.3-7.9-8.4-12.2-12.2c-2.8-2.6-6.7,0.6-5.1,4c1.8,3.7,3.6,7.3,5.4,11
						C781.1,297.4,786.4,294.2,784.7,290.5L784.7,290.5z"/>
				</g>
			</g>
			<g>
				<g>
					<path class="st2" d="M761.5,293.6c-1.1-0.2-1.7-0.7-2.8-0.7c-1.3,0-2.6,0.6-3.7,1.1c-2.7,1.3-5.2,3.2-7.1,5.5
						c-1.7,2.1-0.6,5.1,2.2,5.3c7.1,0.5,13.7-1.2,19.9-4.8c4.4-2.6,0.2-9.7-4-6.9c-4.7,3.1-10.2,5-15.8,5.5c0.9,1.6,1.8,3.1,2.7,4.7
						c1.2-2.1,2.5-3.7,4.7-5c0.9-0.5,1.9-0.8,2.8-1.3c0.6-0.4,0.8-1,1.5-1.4C762.6,295.2,762.4,293.7,761.5,293.6L761.5,293.6z"/>
				</g>
			</g>
			<g>
				<g>
					<path class="st2" d="M710.9,275.5c-1.8-3.4-2.9-6.4-2.2-10.2c-2.1,0.3-4.3,0.6-6.4,0.8c1.9,2.8,4,5.4,5.8,8.2
						c1.7,2.7,2.9,6.6,5.3,8.6c2.6,2.1,6.7,0.8,6.8-2.8c0.1-3.8-2.9-7.6-5.1-10.6c-2.3-3.1-5-6.1-8.1-8.3c-2.7-1.9-5.6,1.2-5.1,4
						c0.8,4.5,2.7,9.3,5.7,12.7C709.3,279.8,712,277.5,710.9,275.5L710.9,275.5z"/>
				</g>
			</g>
			<g>
				<g>
					<path class="st2" d="M681.9,270.4c-5.9-1-11.1,0-16.1,3.3c-3.2,2.1-2.4,8.5,2.2,8c5.3-0.5,10.6-1.4,15.9-2.2
						c4.5-0.7,9-0.3,10.9-5.1c0.4-1-0.1-2.2-0.8-3c-3-3.6-7.7-1.6-11.7-1c-5.2,0.9-10.4,1.7-15.6,2.8c1.4,2.4,2.8,4.8,4.2,7.2
						c2.9-2.4,6.4-3.7,10.1-4C684.3,276.2,685.6,271,681.9,270.4L681.9,270.4z"/>
				</g>
			</g>
			<g>
				<g>
					<path class="st2" d="M641,251.6c1.7-0.7,2.6-2.6,3-4.3c0.6-2.3,1-4.6,2.1-6.8c-2.4-0.7-4.8-1.3-7.3-2c0,3.4,0.3,6.8,0.9,10.1
						c0.6,3.3,1.4,6.2,4.8,7.4c1.3,0.5,2.7-0.3,3.4-1.4c1.7-2.5,0.8-5.1,0.1-7.8c-0.7-2.8-1.1-5.6-1.4-8.4c-0.4-4.5-6-5.2-7.7-1
						c-1.2,3-2.7,7-2.1,10.3C637.2,249.5,638.9,252.5,641,251.6L641,251.6z"/>
				</g>
			</g>
			<g>
				<g>
					<path class="st2" d="M605.7,232.2c-3.9-2.5-9.5,1.9-12.9,3.8c-3.9,2.1-1.7,7.4,2.1,7.7c4.5,0.4,10,1.3,14.4,0
						c4.1-1.2,4.1-7.1,0-8.3c-4.4-1.3-9.9-0.3-14.4,0c0.7,2.6,1.4,5.1,2.1,7.7c2.6-1.9,5.5-3.8,7.8-6.1
						C605.5,236.1,607.4,233.3,605.7,232.2L605.7,232.2z"/>
				</g>
			</g>
			<g>
				<g>
					<path class="st2" d="M608.3,241.2c0.3,0.1,0.6,0.3,0.9,0.5c-0.4-0.4-0.9-0.9-1.3-1.3c1.1,1.9,2.6,2.1,4.5,2.7
						c1.6,0.5,3.1,0.9,4.9,1.1c2.2,0.2,4.2-1.8,4.4-3.9c0.3-2.2-1-4.3-3.2-4.9c-1.6-0.5-3.3-0.5-4.9-0.6c-0.6,0-1.3-0.2-1.9-0.2
						c-1.3,0-2.2,0.6-3.2,1.4c0.5-0.3,1.1-0.6,1.6-0.9c-0.3,0.1-0.6,0.2-0.9,0.1C605.5,235.1,605.2,240.2,608.3,241.2L608.3,241.2z"
						/>
				</g>
			</g>
			<g>
				<g>
					<path class="st2" d="M574.5,206.4c1.6-0.3,2.1-2,2.9-3.2c1.2-2.1,2.5-4.1,4.1-5.9c-1.5-0.9-3.1-1.8-4.6-2.7
						c-0.5,2.4-1.5,4.7-1.8,7.1c-0.4,2.6,0.1,5.2,0.7,7.7c1.3,5.7,10.2,3.3,8.8-2.4c-0.5-1.9-0.7-3.9-1.2-5.8
						c-0.5-1.9-1.1-3.9-1-5.9c0.2-2.9-3.8-3.6-5.1-1.4c-1.7,2.7-3.3,5.7-3.8,8.9C573.1,203.5,572.8,206.8,574.5,206.4L574.5,206.4z"
						/>
				</g>
			</g>
			<g>
				<g>
					<path class="st2" d="M528.1,155.1c-0.3-0.2-0.6-0.5-0.9-0.7c0.2,0.6,0.5,1.2,0.7,1.8c0.6-5-7.6-7.9-11.1-9.5
						c-4.3-2-9.8,3.5-5.5,7.2c5.7,4.8,11.3,9.9,17.2,14.5c4.5,3.5,11-2.4,6.5-6.5c-5.5-5-11.5-9.6-17.3-14.4
						c-1.8,2.4-3.7,4.8-5.5,7.2c3.6,1.6,10.6,6.7,14.4,3.8c-0.6,0.1-1.3,0.2-1.9,0.3c0.4,0.2,0.7,0.3,1.1,0.5
						C527.9,159.9,529.9,156.5,528.1,155.1L528.1,155.1z"/>
				</g>
			</g>
			<g>
				<g>
					<path class="st2" d="M521,124.1c2-1.8,3.3-4,5.6-5.6c-2.1-1.2-4.3-2.5-6.4-3.7c-0.2,3.5-0.4,7-1,10.5c-0.5,3.1-1.6,6-0.5,9
						c0.9,2.4,3.9,3.5,5.8,1.5c2.6-2.7,2.7-6.2,3.2-9.8c0.5-3.7,0.9-7.5,1-11.3c0.1-3.9-4.6-5.3-7.3-3c-2.7,2.4-5.5,5.2-6.2,8.9
						C514.5,124.1,518.4,126.5,521,124.1L521,124.1z"/>
				</g>
			</g>
			<g>
				<g>
					<path class="st2" d="M492,803.6c0.6-2.5,0.7-5.2,0.8-7.7c0.2-2.9,0.6-5.7,0.7-8.5c0.2-3-4.3-4.2-5.6-1.5
						c-1.7,3.4-4,5.9-6.4,8.7c-2,2.3-0.1,6.9,3.3,5.7c0.2-0.1,0.4-0.1,0.5-0.2c-0.9-0.1-1.7-0.2-2.6-0.3c-0.5-0.3,0.1,0.3,0.4,0.6
						c0.4,0.5,0.8,1,1.4,1.4c1.1,0.7,2.6,0.8,3.8,0.2c2.4-1.3,2.1-4,0.7-5.8c-1.1-1.4-3.2-1-4.3,0c-0.1,0.1-0.1,0.1-0.2,0.2
						c-2.7,2.2,0.8,6.7,3.7,4.8c0.1,0,0.1-0.1,0.2-0.1c-1.4-0.4-2.8-0.7-4.2-1.1c-0.1-0.3-0.2-0.6-0.2-0.9c0.5-0.9,1-1.8,1.5-2.7
						c-0.1,0.1-0.2,0.1-0.3,0.2c1.1,0,2.1,0,3.2,0c0.8,0.4,0.2-0.1-0.2-0.7c-0.4-0.6-0.8-1.1-1.4-1.5c-1.2-0.9-2.3-0.9-3.7-0.6
						c1.1,1.9,2.2,3.8,3.3,5.7c3.3-3,5.5-7.1,7.2-11.2c-2-0.3-4-0.5-5.9-0.8c0.1,2.9,0.5,5.7,0.7,8.5c0.1,2.6,0.2,5.2,0.8,7.7
						C489.3,805.1,491.7,805.1,492,803.6L492,803.6z"/>
				</g>
			</g>
			<g>
				<g>
					<path class="st2" d="M463.9,782.8c-2.6-5.8-11.6-3.6-15.4-0.7c-2.4,1.8-2.5,6.1,0.9,6.9c5.6,1.4,11.2,2.7,16.8,4.1
						c3.5,0.8,7.1-4,3.8-6.6c-4.1-3.2-9.2-5-14.5-3.6c-5.4,1.4-3.1,9.3,2.3,8.2c2.9-0.6,5-0.3,7.4,1.6c1-2.4,2-4.8,3-7.2
						c-5.6-1.3-11.3-2.5-16.9-3.8c0.6,2.1,1.1,4.2,1.7,6.3c3.2-2.5,7.3-2.3,10.6-4.3C464,783.6,464,783.2,463.9,782.8L463.9,782.8z"
						/>
				</g>
			</g>
			<g>
				<g>
					<path class="st2" d="M424.3,738.1c0.8-6.2,0.9-12.6,1.3-18.8c0.2-2.4-2.6-3.6-4.5-2.6c-4,2.1-7.3,5.2-9.6,9.2
						c-1.4,2.4,0.4,5.6,3.2,5.6c3.6-0.1,6.2-1.7,8.3-4.6c-2.3-0.3-4.6-0.6-6.9-0.9c0.4,2.1-0.2,3.8-0.9,5.8
						c-1.5,4.1,4.4,5.9,6.6,2.8c2.2-3.1,2.3-6.9,1.6-10.5c-0.7-3.4-5.2-3.3-6.9-0.9c-0.4,0.7-1,1-1.8,0.9c1.1,1.9,2.1,3.7,3.2,5.6
						c1.6-3,3.4-5.7,6.2-7.7c-1.5-0.9-3-1.7-4.5-2.6c0.5,6.4,0.8,12.9,1.7,19.2C421.5,740.4,424.1,739.7,424.3,738.1L424.3,738.1z"
						/>
				</g>
			</g>
			<g>
				<g>
					<path class="st2" d="M388.1,702.4c-3.2-1.3-6.7-0.9-10.1-0.7c-4.3,0.3-6.4,6.2-2.3,8.5c6,3.4,12,6.8,17.9,10.1
						c5.2,2.9,9.8-5.1,4.7-8c-6-3.4-12-6.7-18-10.1c-0.8,2.8-1.5,5.7-2.3,8.5c3.7-0.2,7.6-0.4,10.9-2.3
						C391.6,707,390.6,703.5,388.1,702.4L388.1,702.4z"/>
				</g>
			</g>
			<g>
				<g>
					<path class="st2" d="M363,659c3.2-6.8,3-15.2,4.6-22.4c1.1-4.8-5.9-8.3-8.3-3.5c-2.5,5-5.1,10-7.6,14.9c-2.7,5.3,5.3,10,8,4.7
						c2.5-5,5-10,7.5-15c-2.8-0.8-5.6-1.5-8.5-2.3c0.4,7.5-1.3,15.9,0.8,23.2C359.9,660.1,362.3,660.6,363,659L363,659z"/>
				</g>
			</g>
			<g>
				<g>
					<path class="st2" d="M338.4,623.1c-3.3-3.3-7.8-4.2-12.1-5.4c-3.8-1.1-5.9,3.5-3.6,6.2c4.5,5.4,12,12.7,19.3,13.8
						c4.2,0.6,6.5-4.3,2.9-6.9c-2.7-2-6.2-3.2-9.1-5c-3-1.9-5.5-4.4-7.8-7.1c-1.2,2.1-2.4,4.2-3.6,6.2c4.4,1.2,8.7,2.6,13.3,1.5
						C339,626,339.4,624.1,338.4,623.1L338.4,623.1z"/>
				</g>
			</g>
			<g>
				<g>
					<path class="st2" d="M328.5,592.3c2.2-7.4,3.8-14.8,5.2-22.3c0.7-3.9-4.5-6.6-6.6-2.8c-2.5,4.3-5.8,7.9-8.7,11.9
						c-3.4,4.8,4.5,9.3,7.9,4.6c2.9-4,4.7-8.5,7.1-12.8c-2.2-0.9-4.4-1.9-6.6-2.8c-1.3,7.9-2.3,15.7-2.8,23.6
						C323.8,594.3,327.8,594.7,328.5,592.3L328.5,592.3z"/>
				</g>
			</g>
			<g>
				<g>
					<path class="st2" d="M298.5,530.5c-4.7-1.9-9.7-3.1-14.5-4.8c-3.6-1.3-6.9,4.1-3.9,6.6c7.2,6,14.6,11.6,22.1,17.3
						c4.7,3.6,9.4-4.5,4.7-8c-7.2-5.3-14.5-10.6-22-15.5c-1,2.4-2,4.8-3.1,7.2c5,0.9,10,2.2,15,2.9
						C300.7,536.8,302.2,531.9,298.5,530.5L298.5,530.5z"/>
				</g>
			</g>
			<g>
				<g>
					<path class="st2" d="M322.3,295.9c2.9,2.6,6.1,4.8,9.5,6.8c0.6-2.4,1.3-4.8,1.9-7.1c-6.3-0.5-12.1-2.1-18.1-4.2
						c-4.5-1.6-6.1,5.3-1.9,7c6.4,2.7,13.2,4.1,20,4.8c3.9,0.4,5-5.3,1.9-7.1c-3.4-2-6.8-3.7-10.6-5
						C322.4,290.1,320.2,294,322.3,295.9L322.3,295.9z"/>
				</g>
			</g>
			<g>
				<g>
					<path class="st2" d="M365.3,281.3c2.1-1.6,3.6-3.8,5.2-5.9c1.9-2.6,3.9-5.1,5.9-7.6c-1.6-0.9-3.1-1.8-4.7-2.7
						c-1.2,3.8-2.1,7.8-2.9,11.8c-0.8,4,5.3,5.8,6.2,1.7c0.9-4.2,1.7-8.5,2.2-12.7c0.3-2.9-3.9-3.6-5.2-1.4
						c-1.6,2.6-3.1,5.3-4.7,7.9c-1.5,2.4-3.3,4.8-4,7.5C362.9,280.8,364.3,282.1,365.3,281.3L365.3,281.3z"/>
				</g>
			</g>
			<g>
				<g>
					<path class="st2" d="M413,269.1c2.4,0.7,5.5,1.3,7.4,2.9c0.8-2,1.7-4,2.5-6c-3,0.4-6,0.4-9-0.1c-2.8-0.5-5.1-1.7-7.9-1.2
						c-2.4,0.3-2.4,3.4-1.3,4.8c3.6,4.5,13.1,4.2,18.2,3.6c3.6-0.4,5.1-5.9,0.9-6.9c-3.5-0.8-6.5-2.1-10.1-2
						C410.8,264.2,410.2,268.3,413,269.1L413,269.1z"/>
				</g>
			</g>
			<g>
				<g>
					<path class="st2" d="M458.4,243.6c2.9-0.6,3.9-3.8,5.1-6.2c1.6-3.1,3.1-6.3,4.6-9.4c-2-0.5-4-1.1-6-1.6c0.3,3.8-0.1,7.4-1.3,11
						c-1.3,4,5.1,5.8,6.4,1.8c1.3-4.2,1.8-8.4,1.3-12.8c-0.3-2.8-4.5-4.8-6-1.6c-1.6,3.4-3.1,6.8-4.6,10.2c-1.1,2.5-2.9,5.3-1.4,8
						C456.9,243.6,457.7,243.8,458.4,243.6L458.4,243.6z"/>
				</g>
			</g>
			<g>
				<g>
					<path class="st2" d="M494.4,223.6c1.7,1,3.6,1,5.6,1.5c2.2,0.5,4.4,1.2,6.6,2c-0.3-2.5-0.6-5-1-7.5c-2.5,1.2-5,2.1-7.7,2.5
						c-2.7,0.4-5.3-0.2-8,0c-3.3,0.2-5.6,5.4-1.9,7c6.7,3,15.5,0.9,21.8-2.5c3.2-1.7,2.3-6.5-1-7.5c-4.2-1.3-11.4-1.9-14.6,1.7
						C493.3,221.7,493.4,223,494.4,223.6L494.4,223.6z"/>
				</g>
			</g>
			<g>
				<g>
					<path class="st2" d="M518.8,199.5c1.6-5.1,1.2-11.1,1.4-16.4c-2,0.3-4,0.5-6,0.8c1.6,4,2.6,8.2,4.2,12.1c1.8,4.3,9,2.5,7.2-2
						c-1.7-4.3-4-8.2-5.9-12.5c-1.3-2.9-5.7-1.3-5.7,1.5c0,5.3-0.7,11.3,0.7,16.4C515.3,201.5,518.2,201.4,518.8,199.5L518.8,199.5z
						"/>
				</g>
			</g>
			<g>
				<g>
					<path class="st2" d="M563.7,149.6c3.2,0.8,6.3,1.4,9.7,1.4c-0.9-2.1-1.7-4.2-2.6-6.3c-2.8,2.9-6,4.6-9.9,5.5
						c-4.7,1.1-2.7,8.1,2,7.2c5.1-1,9.6-3.7,13.1-7.5c2.1-2.3,0.7-6.3-2.6-6.3c-3.3,0-6.5,0.6-9.7,1.5
						C561.5,145.7,561.5,149,563.7,149.6L563.7,149.6z"/>
				</g>
			</g>
			<g>
				<g>
					<path class="st2" d="M564,132.5c-1-4.3-2.9-8.4-4.1-12.7c-1.6,0.4-3.1,0.9-4.7,1.3c1.8,4.6,4.5,8.6,8.2,12
						c1.5,1.3,4.6,0.5,4.3-1.8c-0.6-5-3.6-12.9-9.5-13c-1,0-1.9,1-1.5,2c0.3,0.9,0.5,1.7,1.1,2.4c0.7,1,1.7,1.7,2.5,2.7
						c1.4,2,2.1,4.2,2.5,6.5c1.4-0.8,2.8-1.6,4.3-2.5c-3.2-2.6-5.6-5.8-7.1-9.7c-1.1-2.9-5.5-1.8-4.7,1.3c1.1,4.3,2.5,9.2,4.8,13.1
						C561.3,136.3,564.6,135,564,132.5L564,132.5z"/>
				</g>
			</g>
		</g>
	</g>
	<g class="st3">
		<text transform="matrix(1 -5.199999e-04 5.199999e-04 1 422.2887 1030.752)" class="st2 st4 st5">SOS</text>
	</g>
</g>
</svg>
